<svg width="512" height="470" viewBox="0 0 512 470" fill="none" xmlns="http://www.w3.org/2000/svg">
<path d="M469.333 0H42.667C19.146 0 0 19.136 0 42.667V341.334C0 364.865 19.146 384.001 42.667 384.001H207C206.889 388.218 206.833 394.274 206.812 400.999C206.729 426.884 185.885 448.001 160 448.001C154.104 448.001 149.333 452.772 149.333 458.668C149.333 464.564 154.104 469.335 160 469.335H352C357.896 469.335 362.667 464.564 362.667 458.668C362.667 452.772 357.896 448.001 352 448.001C323.833 448.001 301 425.168 301 397.001V384.001H469.334C492.855 384.001 512.001 364.866 512.001 341.334V42.667C512 19.136 492.854 0 469.333 0ZM52 342C46.4772 342 42 337.523 42 332V52C42 46.4772 46.4772 42 52 42H459.983C465.506 42 469.983 46.4768 469.983 51.9994L470 331.999C470 337.522 465.523 342 460 342H52Z" fill="white"/>
</svg>
