<svg width="272" height="387" viewBox="0 0 272 387" fill="none" xmlns="http://www.w3.org/2000/svg">
<path d="M226.667 0C218.169 0 51.1186 0 45.3333 0C20.3365 0 0 20.3447 0 45.3516V341.648C0 366.655 20.3365 387 45.3333 387H226.667C251.663 387 272 366.655 272 341.648V45.3516C272 20.3447 251.663 0 226.667 0ZM241.778 341.648C241.778 349.984 234.999 356.766 226.667 356.766H45.3333C37.0011 356.766 30.2222 349.984 30.2222 341.648V45.3516C30.2222 37.0159 37.0011 30.2344 45.3333 30.2344H72.253L75.4007 39.5912C77.4694 45.7431 83.2343 49.8867 89.7222 49.8867H182.278C188.766 49.8867 194.531 45.7431 196.599 39.5912L199.747 30.2344H226.667C234.999 30.2344 241.778 37.0159 241.778 45.3516V341.648Z" fill="white"/>
</svg>
