<svg width="356" height="469" viewBox="0 0 356 469" fill="none" xmlns="http://www.w3.org/2000/svg">
<path d="M327.746 0H28.2539C12.6765 0 0 12.6759 0 28.2527V440.747C0 456.324 12.6765 469 28.2539 469H327.746C343.324 469 356 456.324 356 440.747V28.2527C356 12.6711 343.324 0 327.746 0ZM178 16.2454C180.338 16.2454 182.238 18.1456 182.238 20.4835C182.238 22.8215 180.338 24.7169 178 24.7169C175.662 24.7169 173.762 22.8167 173.762 20.4787C173.762 18.1408 175.662 16.2454 178 16.2454ZM178 453.452C173.319 453.452 169.523 449.661 169.523 444.976C169.523 440.29 173.319 436.495 178 436.495C182.681 436.495 186.477 440.29 186.477 444.976C186.477 449.661 182.681 453.452 178 453.452ZM333.399 415.316C333.399 421.944 328.026 427.316 321.399 427.316H34.6012C27.9738 427.316 22.6012 421.944 22.6012 415.316V53.6695C22.6012 47.042 27.9738 41.6694 34.6012 41.6694H321.399C328.026 41.6694 333.399 47.042 333.399 53.6694V415.316Z" fill="white"/>
</svg>
